<svg xmlns="http://www.w3.org/2000/svg" width="57.072" height="52.078" viewBox="0 0 57.072 52.078">
  <g id="Group_41" data-name="Group 41" transform="translate(-1342.073 -333.514)">
    <g id="Group_1" data-name="Group 1" transform="translate(1342.073 333.514)">
      <path id="Path_1" data-name="Path 1" d="M311.677,163.648H293.041a9.9,9.9,0,0,0-8.574,4.95l-9.318,16.139a9.9,9.9,0,0,0,0,9.9l9.318,16.14a9.9,9.9,0,0,0,8.574,4.95h18.636a9.9,9.9,0,0,0,8.573-4.95l9.318-16.14a9.9,9.9,0,0,0,0-9.9L320.251,168.6A9.9,9.9,0,0,0,311.677,163.648Z" transform="translate(-273.823 -163.648)" fill="#ef0101"/>
      <path id="Path_2" data-name="Path 2" d="M311.677,163.648H293.041a9.9,9.9,0,0,0-8.574,4.95l-9.318,16.139a9.9,9.9,0,0,0,0,9.9l9.318,16.14a9.9,9.9,0,0,0,8.574,4.95h18.636a9.9,9.9,0,0,0,8.573-4.95l9.318-16.14a9.9,9.9,0,0,0,0-9.9L320.251,168.6A9.9,9.9,0,0,0,311.677,163.648Z" transform="translate(-273.823 -163.648)" fill="#f89500"/>
    </g>
    <g id="Group_2" data-name="Group 2" transform="translate(1354.145 343.079)">
      <path id="Path_3" data-name="Path 3" d="M345.945,223.66c-.021,1.123-.1,2.233-.224,3.341-.036.33-.112.651-.155.978a.5.5,0,0,1-.607.375.543.543,0,0,1-.375-.594,24.3,24.3,0,0,0,.315-3.02,22.575,22.575,0,0,0-.059-3.059,15.959,15.959,0,0,0-.776-4.249,7.245,7.245,0,0,0-2.5-3.3,7.458,7.458,0,0,0-7.511-.87,7.218,7.218,0,0,0-2.5,1.8,7.51,7.51,0,0,0-1.938,4.441,8.407,8.407,0,0,0,.162,2.248,8.986,8.986,0,0,1,.112,3,.478.478,0,0,1-.539.462.469.469,0,0,1-.437-.557,9.213,9.213,0,0,0-.1-2.556,9.668,9.668,0,0,1-.234-2.051,8.505,8.505,0,0,1,3.135-6.524,8.466,8.466,0,0,1,9.772-.667,8.4,8.4,0,0,1,2,1.687,8.707,8.707,0,0,1,2.015,4.408A31.966,31.966,0,0,1,345.945,223.66Z" transform="translate(-320.621 -203.625)" fill="#fff"/>
      <path id="Path_4" data-name="Path 4" d="M323.553,204.054a11.672,11.672,0,0,0-1.316,1.161,10.9,10.9,0,0,0-2.152,3.106,11.72,11.72,0,0,0-.9,2.85.507.507,0,0,1-.457.471.519.519,0,0,1-.506-.3.546.546,0,0,1-.031-.358,12.458,12.458,0,0,1,17.324-9.21,13.249,13.249,0,0,1,2.683,1.615,12.351,12.351,0,0,1,4.458,7.112c.131.57.232,1.146.317,1.724a.514.514,0,0,1-.4.636.5.5,0,0,1-.6-.478,19.533,19.533,0,0,0-.413-2.115,11.294,11.294,0,0,0-2.312-4.46,12.03,12.03,0,0,0-1.759-1.674,11.388,11.388,0,0,0-3.73-1.936,11.036,11.036,0,0,0-3.984-.467A11.6,11.6,0,0,0,323.553,204.054Z" transform="translate(-314.02 -196.709)" fill="#fff"/>
      <path id="Path_5" data-name="Path 5" d="M325.471,195.276a13.188,13.188,0,0,1,1.8.092,1.347,1.347,0,0,1,.191.035.5.5,0,0,1,.386.6.476.476,0,0,1-.554.388,12.718,12.718,0,0,0-2.5-.1,13,13,0,0,0-3.424.628,13.3,13.3,0,0,0-4.765,2.7,14.384,14.384,0,0,0-1.34,1.37,13.567,13.567,0,0,0-3.055,6.515,12.849,12.849,0,0,0,.046,4.674,4.912,4.912,0,0,1-.039,2.322,4.359,4.359,0,0,1-1.036,1.863.5.5,0,0,1-.718.023.487.487,0,0,1-.018-.7,3.791,3.791,0,0,0,.749-1.273,3.437,3.437,0,0,0,.11-1.829,14.267,14.267,0,0,1,.1-6.2,14.529,14.529,0,0,1,2.119-4.783,15.082,15.082,0,0,1,1.383-1.76,14,14,0,0,1,2.344-2.011,14.356,14.356,0,0,1,4.959-2.191A12.536,12.536,0,0,1,325.471,195.276Z" transform="translate(-309.031 -193.265)" fill="#fff"/>
      <path id="Path_6" data-name="Path 6" d="M350.291,232.914a20.654,20.654,0,0,1-.4,5.232,20.229,20.229,0,0,1-1.785,5.114,21.092,21.092,0,0,1-2.077,3.3.546.546,0,0,1-.548.266.49.49,0,0,1-.3-.8c.3-.427.624-.842.912-1.28a21.665,21.665,0,0,0,1.084-1.885,18.711,18.711,0,0,0,1.469-3.813,19.76,19.76,0,0,0,.569-3.179,17.8,17.8,0,0,0,.081-2.455,18.421,18.421,0,0,0-.4-3.31,1.489,1.489,0,0,0-2.909.633,17.014,17.014,0,0,1,.307,4.289,14.314,14.314,0,0,1-.336,2.431.5.5,0,0,1-.483.418.509.509,0,0,1-.494-.377.467.467,0,0,1,0-.255,15.2,15.2,0,0,0,.318-2.5,14.747,14.747,0,0,0-.306-3.79,2.508,2.508,0,1,1,4.945-.836c.071.418.151.835.2,1.255C350.2,231.884,350.241,232.4,350.291,232.914Z" transform="translate(-330.99 -213.999)" fill="#fff"/>
      <path id="Path_7" data-name="Path 7" d="M373.128,214.448a28.88,28.88,0,0,1-.22,3.871.545.545,0,0,1-.362.535.476.476,0,0,1-.513-.136.521.521,0,0,1-.131-.439c.049-.544.107-1.087.149-1.631a29.572,29.572,0,0,0,.053-3.492c-.028-.709-.075-1.419-.158-2.125a18.619,18.619,0,0,0-1.378-5.717,13.031,13.031,0,0,0-1.6-2.651,6.2,6.2,0,0,0-.705-.8c-.355-.315-.646-.688-.984-1.014a9.237,9.237,0,0,0-1-.811c-.408-.3-.824-.573-1.255-.832a12.364,12.364,0,0,0-2.307-1.061c-.122-.042-.246-.082-.364-.135a.484.484,0,0,1-.257-.647.5.5,0,0,1,.62-.291,15.56,15.56,0,0,1,2.716,1.2,14.5,14.5,0,0,1,3.424,2.7,14.755,14.755,0,0,1,2.11,2.9,14.368,14.368,0,0,1,1.258,3.019,21.088,21.088,0,0,1,.553,2.724c.135.881.218,1.768.289,2.656A19.369,19.369,0,0,1,373.128,214.448Z" transform="translate(-341.847 -194.392)" fill="#fff"/>
      <path id="Path_8" data-name="Path 8" d="M333.963,218.1a5.213,5.213,0,0,0-3.448,1.237,5.458,5.458,0,0,0-1.985,3.791,7.485,7.485,0,0,0,.192,2.03,12.436,12.436,0,0,1-.281,5.255,9.316,9.316,0,0,1-.376,1.2,12.9,12.9,0,0,1-3.345,4.817c-.048.044-.1.086-.147.127a.481.481,0,0,1-.7-.016.507.507,0,0,1,.05-.748,11.465,11.465,0,0,0,2.347-2.831,12.317,12.317,0,0,0,1.205-2.863,11.873,11.873,0,0,0,.37-3.713c-.042-.693-.205-1.363-.29-2.046a6.518,6.518,0,0,1,2.057-5.567,6.428,6.428,0,0,1,3.263-1.6,6.976,6.976,0,0,1,1.588-.085.516.516,0,0,1,.507.513.511.511,0,0,1-.535.5Z" transform="translate(-317.544 -207.091)" fill="#fff"/>
      <path id="Path_9" data-name="Path 9" d="M362.192,234.056a22.062,22.062,0,0,1-.976,3.135,26.689,26.689,0,0,1-1.686,3.517c-.239.414-.685.474-.915.115a.485.485,0,0,1,0-.548,22.859,22.859,0,0,0,1.759-3.719,23.976,23.976,0,0,0,1.265-5.206,24.3,24.3,0,0,0,.154-4,19.541,19.541,0,0,0-.524-3.9,5.27,5.27,0,0,0-1.256-2.28,5.644,5.644,0,0,0-1.291-1.031c-.316-.193-.416-.472-.261-.735.167-.28.454-.325.786-.126a6.548,6.548,0,0,1,3.172,4.7,25.658,25.658,0,0,1,.395,5.02A24.759,24.759,0,0,1,362.192,234.056Z" transform="translate(-339.522 -208.405)" fill="#fff"/>
      <path id="Path_10" data-name="Path 10" d="M327.91,189.807a16.144,16.144,0,0,1,7.87,1.649.5.5,0,0,1,.16.861.531.531,0,0,1-.6.044c-.336-.163-.676-.316-1.023-.455a15.337,15.337,0,0,0-10.092-.469,14.846,14.846,0,0,0-3.638,1.6,15.618,15.618,0,0,0-2.458,1.848,14.942,14.942,0,0,0-1.505,1.618c-.166.207-.339.408-.5.619a.512.512,0,0,1-.708.138.476.476,0,0,1-.117-.7,12.971,12.971,0,0,1,1.269-1.55,16.458,16.458,0,0,1,9.646-5.045A15.428,15.428,0,0,1,327.91,189.807Z" transform="translate(-312.132 -189.79)" fill="#fff"/>
      <path id="Path_11" data-name="Path 11" d="M375.878,223.994a12.354,12.354,0,0,0-1.539-4.922c-.1-.16-.192-.321-.295-.477a.393.393,0,0,0-.551-.108l-.2.141a.39.39,0,0,0-.1.55l0,0a7.922,7.922,0,0,1,1.271,2.789,25.069,25.069,0,0,1,.685,5.53,27.329,27.329,0,0,1-.262,4.274c-.107.82-.262,1.633-.45,2.438a28.168,28.168,0,0,1-1.009,3.342,2.07,2.07,0,0,0-.09.288.477.477,0,0,0,.313.567.5.5,0,0,0,.625-.278c.25-.629.459-1.27.658-1.917a28.065,28.065,0,0,0,.939-12.22Z" transform="translate(-348.86 -207.943)" fill="#fff"/>
      <path id="Path_12" data-name="Path 12" d="M321.783,212.963c.083-.086.167-.171.251-.254.152-.15.342-.413.554-.472a.6.6,0,0,1,.625.228.509.509,0,0,1-.165.718,9.323,9.323,0,0,0-2.183,2.59,9.571,9.571,0,0,0-1.252,5.2,17.04,17.04,0,0,0,.267,1.854,8.278,8.278,0,0,1-.768,4.948,8.165,8.165,0,0,1-2.291,2.87.486.486,0,0,1-.724-.043.513.513,0,0,1,.122-.754,7.652,7.652,0,0,0,1.925-2.38,7.465,7.465,0,0,0,.827-3.317,8.018,8.018,0,0,0-.175-1.712,10.125,10.125,0,0,1,.3-5.128,10.4,10.4,0,0,1,1.379-2.772,12.457,12.457,0,0,1,.989-1.237Q321.622,213.129,321.783,212.963Z" transform="translate(-312.628 -204.013)" fill="#fff"/>
      <path id="Path_13" data-name="Path 13" d="M344.671,237.332a18.619,18.619,0,0,1-2.1,8.744,18.311,18.311,0,0,1-2.457,3.583.524.524,0,0,1-.521.235.5.5,0,0,1-.265-.853,20.432,20.432,0,0,0,1.438-1.883,17.359,17.359,0,0,0,2.55-13.03.5.5,0,0,1,.366-.633.486.486,0,0,1,.61.4,15.5,15.5,0,0,1,.293,1.938C344.631,236.42,344.653,237.009,344.671,237.332Z" transform="translate(-327.337 -217.494)" fill="#fff"/>
      <path id="Path_14" data-name="Path 14" d="M383.29,211c0,.194,0,.389,0,.583a.5.5,0,0,1-.49.544.524.524,0,0,1-.518-.528c-.011-.295,0-.59-.008-.884a15.847,15.847,0,0,0-1.709-6.494,14.889,14.889,0,0,0-2.74-3.767,15.642,15.642,0,0,0-1.989-1.709c-.053-.037-.1-.079-.152-.121a.49.49,0,0,1-.1-.675.471.471,0,0,1,.684-.128c.287.191.564.4.833.612a16.492,16.492,0,0,1,4.042,4.724,16.183,16.183,0,0,1,1.4,3.261,17.318,17.318,0,0,1,.724,3.869c.017.236,0,.474,0,.712Z" transform="translate(-350.363 -194.821)" fill="#fff"/>
      <path id="Path_15" data-name="Path 15" d="M344.436,222.515a4.4,4.4,0,0,1,3.531,2.106,4.834,4.834,0,0,1,.67,1.871,23.413,23.413,0,0,1,.371,3.944.522.522,0,0,1-.276.539.486.486,0,0,1-.7-.311,1.065,1.065,0,0,1-.031-.277,20.239,20.239,0,0,0-.45-4.172,3.495,3.495,0,0,0-6.413-.959,3,3,0,0,0-.393,1,.48.48,0,0,1-.417.434.492.492,0,0,1-.567-.629,4.393,4.393,0,0,1,1.823-2.732A4.68,4.68,0,0,1,344.436,222.515Z" transform="translate(-327.695 -210.541)" fill="#fff"/>
      <path id="Path_16" data-name="Path 16" d="M333.831,240.3a14.508,14.508,0,0,1-4.535,10.7.5.5,0,0,1-.848-.09.537.537,0,0,1,.153-.644,13.2,13.2,0,0,0,2.076-2.5,13.453,13.453,0,0,0,2.041-5.607,14.079,14.079,0,0,0,0-3.441.487.487,0,0,1,.424-.609.5.5,0,0,1,.562.484A10.482,10.482,0,0,1,333.831,240.3Z" transform="translate(-320.5 -220.425)" fill="#fff"/>
      <path id="Path_17" data-name="Path 17" d="M307.791,225.7a.5.5,0,0,1-.5-.426,16.272,16.272,0,0,1-.381-2.054,17.7,17.7,0,0,1-.084-2.6,15.387,15.387,0,0,1,.548-3.549,14.313,14.313,0,0,1,.484-1.517,13.51,13.51,0,0,1,.783-1.721.5.5,0,0,1,.584-.2.484.484,0,0,1,.328.541,1.05,1.05,0,0,1-.1.283,15.193,15.193,0,0,0-1.2,10.545A.514.514,0,0,1,307.791,225.7Z" transform="translate(-306.816 -204.889)" fill="#fff"/>
      <path id="Path_18" data-name="Path 18" d="M349.8,209.357a5.754,5.754,0,0,1-.521-.379,9.409,9.409,0,0,0-4.745-1.776,9.569,9.569,0,0,0-4.751.811.454.454,0,0,1-.684-.222.515.515,0,0,1,.272-.7,11.217,11.217,0,0,1,3.622-.905,10.491,10.491,0,0,1,5.022.9,13.328,13.328,0,0,1,1.449.79,8.51,8.51,0,0,1,.841.627.5.5,0,0,1-.1.9A.38.38,0,0,1,349.8,209.357Z" transform="translate(-327.251 -200.168)" fill="#fff"/>
      <path id="Path_19" data-name="Path 19" d="M356.013,250.014a.5.5,0,0,1,.5.585,23.464,23.464,0,0,1-.772,3.754,22.518,22.518,0,0,1-2.961,6.27c-.237.355-.563.4-.828.127a.457.457,0,0,1-.053-.61,21.013,21.013,0,0,0,1.7-2.972,21.472,21.472,0,0,0,1.849-6.217c.023-.171.038-.343.071-.512A.468.468,0,0,1,356.013,250.014Z" transform="translate(-335.347 -227.979)" fill="#fff"/>
      <path id="Path_20" data-name="Path 20" d="M383.422,240.3a30.932,30.932,0,0,1-.947,7.646c-.032.125-.056.253-.1.374a.487.487,0,0,1-.581.326.482.482,0,0,1-.376-.569c.03-.191.085-.379.132-.567a28.806,28.806,0,0,0,.776-4.865c.075-1.026.082-2.053.071-3.08,0-.3-.033-.6-.038-.9a.482.482,0,0,1,.477-.547.521.521,0,0,1,.529.538C383.38,239.271,383.45,239.887,383.422,240.3Z" transform="translate(-354.116 -220.434)" fill="#fff"/>
      <path id="Path_21" data-name="Path 21" d="M316.014,238.34a6.514,6.514,0,0,1-2.246,4.914.5.5,0,0,1-.732.011.514.514,0,0,1,.079-.773,5.44,5.44,0,0,0,1.892-3.991,7.752,7.752,0,0,0-.2-1.751,11.087,11.087,0,0,1-.147-1.435.515.515,0,0,1,.5-.566.521.521,0,0,1,.506.534,14.15,14.15,0,0,0,.263,1.984A5.244,5.244,0,0,1,316.014,238.34Z" transform="translate(-310.671 -218.299)" fill="#fff"/>
      <path id="Path_22" data-name="Path 22" d="M337.981,259.506a.8.8,0,0,1-.079.333,17.278,17.278,0,0,1-2.877,4.711c-.181.213-.374.418-.568.619a.567.567,0,0,1-.587.181.473.473,0,0,1-.339-.383.558.558,0,0,1,.228-.528,14.725,14.725,0,0,0,1.135-1.327,15.88,15.88,0,0,0,2.121-3.762.5.5,0,0,1,.967.156Z" transform="translate(-323.748 -233.68)" fill="#fff"/>
      <path id="Path_23" data-name="Path 23" d="M322.064,254.493a10.69,10.69,0,0,0,.529-1.106.506.506,0,0,1,.485-.361.534.534,0,0,1,.484.336.282.282,0,0,1,.005.2,4.838,4.838,0,0,1-.443,1.072c-.176.361-.4.7-.592,1.049a6.248,6.248,0,0,1-.534.72c-.188.253-.4.49-.611.724a11.809,11.809,0,0,1-.907.853.513.513,0,1,1-.649-.771A9.42,9.42,0,0,0,322.064,254.493Z" transform="translate(-314.91 -229.888)" fill="#fff"/>
      <path id="Path_24" data-name="Path 24" d="M368.331,261.475a.493.493,0,0,1,.471.642,16.5,16.5,0,0,1-.471,1.591,26.08,26.08,0,0,1-1.228,3.013.793.793,0,0,1-.2.3.5.5,0,0,1-.765-.583c.221-.515.466-1.02.677-1.539.239-.591.468-1.187.665-1.794.1-.318.2-.64.281-.964C367.848,261.8,367.889,261.477,368.331,261.475Z" transform="translate(-344.406 -235.246)" fill="#fff"/>
      <path id="Path_25" data-name="Path 25" d="M333.063,209.751l.052-.041Z" transform="translate(-323.459 -202.422)" fill="#fff"/>
      <path id="Path_26" data-name="Path 26" d="M332.948,209.875l.041-.051Z" transform="translate(-323.386 -202.494)" fill="#fff"/>
    </g>
  </g>
</svg>
